<svg width="796" height="587" viewBox="0 0 796 587" fill="none" xmlns="http://www.w3.org/2000/svg">
<g filter="url(#filter0_d_484_35)">
<rect x="89" y="67" width="619.741" height="410.068" rx="20.8403" fill="url(#paint0_linear_484_35)"/>
</g>
<circle cx="265" cy="297" r="13" fill="white" fill-opacity="0.565942"/>
<circle opacity="0.281204" cx="251.84" cy="176.84" r="20.8403" fill="url(#paint1_linear_484_35)"/>
<circle opacity="0.0236468" cx="597" cy="149" r="13" fill="#651CF3"/>
<circle cx="532.874" cy="227.151" r="8.85714" fill="white" fill-opacity="0.565942"/>
<circle cx="339.9" cy="379.723" r="5.21008" fill="#FFFC07"/>
<path opacity="0.994308" d="M406.79 153.33L427.63 149L423.597 168.798L406.79 153.33Z" fill="#FDFF4A"/>
<path opacity="0.899554" d="M459.435 379.541L441.063 397.521L431.279 371.793L459.435 379.541Z" fill="#15E0FF"/>
<path fill-rule="evenodd" clip-rule="evenodd" d="M325.779 340.497C325.009 336.951 323.733 333.535 323.104 329.95C318.763 305.225 327.313 285.759 347.183 270.925C348.918 269.63 350.707 268.338 352.644 267.404C354.426 266.544 354.341 265.71 353.534 264.192C351.049 259.511 348.7 254.757 346.305 250.028C346.104 249.631 345.951 249.21 345.774 248.795C346.273 248.255 346.741 248.705 347.163 248.846C363.703 254.374 380.236 259.921 396.775 265.453C397.745 265.777 398.443 265.946 397.975 267.373C392.44 284.246 386.985 301.146 381.505 318.037C381.449 318.209 381.332 318.362 381.06 318.858C379.606 316.031 378.243 313.418 376.915 310.788C375.619 308.223 374.298 305.668 373.109 303.052C372.558 301.84 371.97 301.532 370.638 301.914C348.568 308.245 333.228 321.25 328.175 344.527C328.108 344.834 327.986 345.13 327.89 345.431C327.186 343.787 326.483 342.142 325.779 340.497" fill="url(#paint2_linear_484_35)"/>
<g filter="url(#filter1_d_484_35)">
<circle cx="468.5" cy="284.5" r="35.5" fill="white"/>
</g>
<path fill-rule="evenodd" clip-rule="evenodd" d="M465.144 276.304L463.314 283.085L473.782 276.266L466.936 301.994L473.888 302L484 264L465.144 276.304Z" fill="#3395FF"/>
<path fill-rule="evenodd" clip-rule="evenodd" d="M453.878 291.185L451 302H465.248C465.248 302 471.076 280.003 471.078 279.997C471.073 280.001 453.878 291.185 453.878 291.185Z" fill="#072654"/>
<g filter="url(#filter2_d_484_35)">
<circle cx="354" cy="213" r="23" fill="white"/>
</g>
<path fill-rule="evenodd" clip-rule="evenodd" d="M358.681 225H355.576C355.471 224.944 355.378 224.876 355.3 224.784C352.984 222.07 350.65 219.371 348.188 216.782C348.058 216.645 347.999 216.494 348.002 216.306C348.008 215.779 348.003 215.252 348.004 214.725C348.005 214.313 348.176 214.147 348.596 214.145C349.22 214.143 349.844 214.154 350.467 214.137C351.259 214.117 352.038 214.007 352.778 213.71C353.611 213.375 354.252 212.844 354.571 211.992C354.658 211.762 354.653 211.76 354.409 211.76C352.472 211.76 350.535 211.76 348.599 211.76C348.15 211.76 348.005 211.616 348.004 211.174C348.003 210.777 348.003 210.38 348.004 209.983C348.006 209.551 348.15 209.407 348.588 209.407C349.516 209.406 350.445 209.406 351.373 209.406C352.328 209.406 353.283 209.407 354.238 209.405C354.294 209.405 354.371 209.436 354.401 209.378C354.429 209.324 354.368 209.271 354.337 209.224C354.107 208.864 353.8 208.585 353.42 208.379C352.706 207.992 351.927 207.848 351.127 207.821C350.293 207.792 349.456 207.806 348.621 207.801C348.169 207.799 348.005 207.642 348.004 207.205C348.003 206.665 348.013 206.125 348 205.585C347.994 205.316 348.08 205.119 348.33 205H360.632C360.79 205.087 360.945 205.177 360.956 205.382C360.984 205.915 360.986 206.448 360.955 206.981C360.946 207.14 360.848 207.244 360.71 207.311C360.6 207.366 360.477 207.355 360.358 207.355C359.35 207.356 358.342 207.355 357.333 207.357C357.283 207.357 357.215 207.33 357.186 207.382C357.157 207.435 357.218 207.475 357.246 207.515C357.616 208.033 357.869 208.6 358.011 209.216C358.04 209.342 358.08 209.413 358.242 209.411C358.984 209.4 359.728 209.404 360.471 209.408C360.833 209.409 360.994 209.567 360.997 209.92C361.002 210.35 361 210.779 360.998 211.209C360.996 211.607 360.838 211.759 360.427 211.759C359.751 211.761 359.074 211.76 358.397 211.76C358.102 211.76 358.105 211.761 358.045 212.054C357.859 212.958 357.478 213.771 356.862 214.47C355.895 215.568 354.643 216.176 353.221 216.482C352.91 216.549 352.594 216.598 352.256 216.659C352.716 217.157 353.162 217.629 353.597 218.111C355.379 220.084 357.093 222.114 358.797 224.153C359.097 224.512 359.067 224.741 358.681 225" fill="#002657"/>
<defs>
<filter id="filter0_d_484_35" x="0" y="0" width="795.741" height="586.068" filterUnits="userSpaceOnUse" color-interpolation-filters="sRGB">
<feFlood flood-opacity="0" result="BackgroundImageFix"/>
<feColorMatrix in="SourceAlpha" type="matrix" values="0 0 0 0 0 0 0 0 0 0 0 0 0 0 0 0 0 0 127 0" result="hardAlpha"/>
<feOffset dx="-1" dy="21"/>
<feGaussianBlur stdDeviation="44"/>
<feColorMatrix type="matrix" values="0 0 0 0 0.0235294 0 0 0 0 0.176443 0 0 0 0 1 0 0 0 0.203425 0"/>
<feBlend mode="normal" in2="BackgroundImageFix" result="effect1_dropShadow_484_35"/>
<feBlend mode="normal" in="SourceGraphic" in2="effect1_dropShadow_484_35" result="shape"/>
</filter>
<filter id="filter1_d_484_35" x="372" y="210" width="193" height="193" filterUnits="userSpaceOnUse" color-interpolation-filters="sRGB">
<feFlood flood-opacity="0" result="BackgroundImageFix"/>
<feColorMatrix in="SourceAlpha" type="matrix" values="0 0 0 0 0 0 0 0 0 0 0 0 0 0 0 0 0 0 127 0" result="hardAlpha"/>
<feOffset dy="22"/>
<feGaussianBlur stdDeviation="30.5"/>
<feColorMatrix type="matrix" values="0 0 0 0 0.0555285 0 0 0 0 0.0603679 0 0 0 0 0.12984 0 0 0 0.373743 0"/>
<feBlend mode="normal" in2="BackgroundImageFix" result="effect1_dropShadow_484_35"/>
<feBlend mode="normal" in="SourceGraphic" in2="effect1_dropShadow_484_35" result="shape"/>
</filter>
<filter id="filter2_d_484_35" x="270" y="151" width="168" height="168" filterUnits="userSpaceOnUse" color-interpolation-filters="sRGB">
<feFlood flood-opacity="0" result="BackgroundImageFix"/>
<feColorMatrix in="SourceAlpha" type="matrix" values="0 0 0 0 0 0 0 0 0 0 0 0 0 0 0 0 0 0 127 0" result="hardAlpha"/>
<feOffset dy="22"/>
<feGaussianBlur stdDeviation="30.5"/>
<feColorMatrix type="matrix" values="0 0 0 0 0.0555285 0 0 0 0 0.0603679 0 0 0 0 0.12984 0 0 0 0.373743 0"/>
<feBlend mode="normal" in2="BackgroundImageFix" result="effect1_dropShadow_484_35"/>
<feBlend mode="normal" in="SourceGraphic" in2="effect1_dropShadow_484_35" result="shape"/>
</filter>
<linearGradient id="paint0_linear_484_35" x1="205.853" y1="-11.1139" x2="179.288" y2="458.989" gradientUnits="userSpaceOnUse">
<stop stop-color="#7F6FFF"/>
<stop offset="1" stop-color="#424DFF"/>
</linearGradient>
<linearGradient id="paint1_linear_484_35" x1="255.107" y1="155.985" x2="234.706" y2="176.299" gradientUnits="userSpaceOnUse">
<stop stop-color="#86A3FF"/>
<stop offset="1" stop-color="#6EDBEF" stop-opacity="0.01"/>
</linearGradient>
<linearGradient id="paint2_linear_484_35" x1="322" y1="248.536" x2="322" y2="395.967" gradientUnits="userSpaceOnUse">
<stop stop-color="#EDEFFF"/>
<stop offset="1" stop-color="#4954FF"/>
</linearGradient>
</defs>
</svg>
